<?xml version="1.0" encoding="UTF-8"?>
<svg id="Layer_2" data-name="Layer 2" xmlns="http://www.w3.org/2000/svg" viewBox="0 0 292 70">
  <defs>
    <style>
      .cls-1 {
        fill: #f29500;
      }

      .cls-2 {
        fill: #fff;
      }

      .cls-3 {
        fill: #ffbb1f;
      }

      .cls-4 {
        fill: #0e3c4e;
      }
    </style>
  </defs>
  <g id="Layer_2-2" data-name="Layer 2">
    <g>
      <rect class="cls-4" width="292" height="70"/>
      <g>
        <g>
          <path class="cls-2" d="m107.34,47.42c0,7.28-5.12,12.83-13.26,12.83h-10.63v-25.51h10.63c8.14,0,13.26,5.33,13.26,12.68Zm-13.98,5.69c3.53,0,5.87-1.98,5.87-5.69s-2.34-5.69-5.87-5.69h-1.91v11.39h1.91Z"/>
          <path class="cls-2" d="m109.64,34.38c0-2.23,1.77-4,4.61-4s4.58,1.77,4.58,4-1.77,3.93-4.58,3.93-4.61-1.73-4.61-3.93Zm.58,5.55h8v20.32h-8v-20.32Z"/>
          <path class="cls-2" d="m135.51,49.48c0-1.95-1.12-3.13-2.85-3.13s-2.85,1.19-2.85,3.13v10.77h-8v-20.32h8v3.1c1.15-1.77,3.17-3.24,6.23-3.24,4.68,0,7.42,3.42,7.42,8.68v11.78h-7.96v-10.77Z"/>
          <path class="cls-2" d="m156.59,60.5c-6.13,0-10.74-3.93-10.74-10.41s4.61-10.41,10.74-10.41,10.74,3.93,10.74,10.41-4.61,10.41-10.74,10.41Zm0-6.92c1.41,0,2.63-1.08,2.63-3.5s-1.23-3.5-2.63-3.5-2.63,1.08-2.63,3.5,1.19,3.5,2.63,3.5Z"/>
          <path class="cls-2" d="m197.2,49.48c0-1.73-1.12-2.77-2.85-2.77s-2.85,1.04-2.85,2.77v10.77h-7.96v-10.77c0-1.73-1.12-2.77-2.85-2.77s-2.85,1.04-2.85,2.77v10.77h-8v-20.32h8v2.74c1.08-1.59,3.03-2.88,5.87-2.88s5.26,1.33,6.59,3.64c1.37-1.95,3.68-3.64,6.67-3.64,5.26,0,8.18,3.42,8.18,8.68v11.78h-7.96v-10.77Z"/>
          <path class="cls-2" d="m208.04,34.38c0-2.23,1.77-4,4.61-4s4.58,1.77,4.58,4-1.77,3.93-4.58,3.93-4.61-1.73-4.61-3.93Zm.58,5.55h8v20.32h-8v-20.32Z"/>
          <path class="cls-2" d="m236,46.2l-8.11,7.42h8.47v6.63h-17.22v-6.27l7.75-7.42h-7.64v-6.63h16.75v6.27Z"/>
          <path class="cls-2" d="m248.18,60.5c-6.09,0-10.38-3.93-10.38-10.41s4.29-10.41,10.38-10.41,10.38,3.86,10.38,10.23c0,.5-.04,1.08-.11,1.59h-12.83c.11,2.05,1.08,2.63,2.16,2.63s1.59-.58,1.87-1.19h8.47c-.86,4.32-4.83,7.57-9.94,7.57Zm-2.49-12.5h4.76c0-1.41-1.08-2.05-2.27-2.05-1.33,0-2.23.65-2.49,2.05Z"/>
          <path class="cls-2" d="m269.08,60.25h-8v-20.32h8v3.75c1.59-2.27,4.04-3.89,6.67-3.89v8.54h-2.27c-2.88,0-4.4.83-4.4,3.6v8.32Z"/>
        </g>
        <g>
          <polygon class="cls-3" points="16.25 54.27 37.4 19.07 67.4 14.5 73.68 20.54 85.97 9.5 95.11 10.79 99.4 14.5 99.4 20.54 89.97 20.54 55.11 60.5 55.11 39.65 34.83 60.5 34.83 41.92 16.25 54.27"/>
          <polygon class="cls-1" points="69.97 60.5 77.11 60.5 77.11 35.28 69.48 44.03 69.97 60.5"/>
        </g>
      </g>
    </g>
  </g>
</svg>